<svg xmlns="http://www.w3.org/2000/svg" viewBox="0 0 1366 768"><title>bg-copa</title><rect width="1366" height="768" style="fill:#292829"/><path d="M467.44,22a13.87,13.87,0,1,0,13.88,13.87A13.87,13.87,0,0,0,467.44,22" style="fill:#405f98"/><path d="M862.72,152.84a6.86,6.86,0,1,0,6.86,6.86,6.86,6.86,0,0,0-6.86-6.86" style="fill:#405f98"/><polyline points="912.34 35.16 912.34 48.88 898.61 48.88 912.34 35.16" style="fill:#fff"/><path d="M1318.67,64.33a11.26,11.26,0,0,1,11.26,11.26h-5.35a5.91,5.91,0,1,0-5.91,5.91v5.35a11.26,11.26,0,1,1,0-22.51" style="fill:#405f98"/><path d="M1137.61,41.49a11.26,11.26,0,0,1,11.26-11.26v5.35a5.91,5.91,0,1,0,5.91,5.91h5.35a11.26,11.26,0,0,1-22.52,0" style="fill:#fff"/><path d="M1212.24,49.31a6.86,6.86,0,1,0,6.86,6.86,6.86,6.86,0,0,0-6.86-6.86" style="fill:#405f98"/><path d="M1151,259a11.26,11.26,0,0,1-11.26-11.26h5.35a5.91,5.91,0,1,0,5.91-5.91v-5.35a11.26,11.26,0,1,1,0,22.51" style="fill:#405f98"/><path d="M1332.06,281.81a11.26,11.26,0,0,1-11.26,11.26v-5.35a5.91,5.91,0,1,0-5.91-5.91h-5.35a11.26,11.26,0,0,1,22.52,0" style="fill:#fff"/><path d="M1257.44,274a6.86,6.86,0,1,0-6.86-6.86,6.86,6.86,0,0,0,6.86,6.86" style="fill:#405f98"/><path d="M168.88,74.94a11.26,11.26,0,0,0-14.19,7.23l5.09,1.65a5.91,5.91,0,1,1,3.8,7.45l-1.65,5.09a11.26,11.26,0,1,0,7-21.41" style="fill:#405f98"/><path d="M150.44,95.22a5.91,5.91,0,1,1,7.45-3.79,5.92,5.92,0,0,1-7.45,3.79m5.31-16.33A11.26,11.26,0,1,0,163,93.08a11.26,11.26,0,0,0-7.23-14.18" style="fill:#fff"/><path d="M1019.07,232.09a11.26,11.26,0,0,0-14.19,7.23L1010,241a5.91,5.91,0,1,1,3.8,7.45l-1.65,5.09a11.26,11.26,0,1,0,7-21.41" style="fill:#405f98"/><path d="M1000.63,252.38a5.91,5.91,0,1,1,7.45-3.79,5.92,5.92,0,0,1-7.45,3.79m5.31-16.33a11.26,11.26,0,1,0,7.23,14.18,11.26,11.26,0,0,0-7.23-14.18" style="fill:#fff"/><path d="M252.54,147.1a6.69,6.69,0,1,0,6.86,6.68,6.78,6.78,0,0,0-6.86-6.68" style="fill:#fff"/><polyline points="387.26 107.46 387.26 121.18 373.54 121.18 387.26 107.46" style="fill:#fff"/><path d="M265.88,38.07a11.26,11.26,0,0,0,11.26-11.26h-5.35a5.91,5.91,0,1,1-5.91-5.91V15.55a11.26,11.26,0,1,0,0,22.51" style="fill:#fff"/><path d="M1153.86,173.57A13.87,13.87,0,1,0,1140,159.7a13.87,13.87,0,0,0,13.88,13.87" style="fill:#405f98"/><path d="M19.82,169.8A7.84,7.84,0,1,0,12,162a7.84,7.84,0,0,0,7.84,7.84" style="fill:#fff"/><polygon points="1347.55 160.91 1347.55 172.21 1336.25 172.21 1347.55 160.91" style="fill:#405f98"/><path d="M1008.7,96.2A11.26,11.26,0,0,1,1020,107.46h-5.35a5.91,5.91,0,1,0-5.91,5.91v5.35a11.26,11.26,0,1,1,0-22.51" style="fill:#405f98"/><path d="M0,29.16V56.9A13.87,13.87,0,0,0,13.88,43,13.87,13.87,0,0,0,0,29.16" style="fill:#405f98"/><path d="M414.91,230.74A13.88,13.88,0,1,0,401,244.61a13.87,13.87,0,0,0,13.88-13.87" style="fill:#405f98"/><path d="M682.15,167.7a11.26,11.26,0,0,0-7.23-14.18l-1.65,5.09a5.91,5.91,0,1,1-7.45,3.79l-5.09-1.65a11.26,11.26,0,0,0,21.42,7" style="fill:#405f98"/><path d="M661.86,149.27a5.91,5.91,0,1,1,3.8,7.45,5.92,5.92,0,0,1-3.8-7.45m16.34,5.3A11.26,11.26,0,1,0,664,161.81a11.26,11.26,0,0,0,14.19-7.23" style="fill:#fff"/><path d="M610,251.32a6.69,6.69,0,1,0-6.69,6.86,6.78,6.78,0,0,0,6.69-6.86" style="fill:#fff"/><polyline points="161.56 248.03 147.83 248.03 147.83 234.3 161.56 248.03" style="fill:#fff"/><path d="M719,264.65a11.26,11.26,0,0,0,11.26,11.26v-5.35a5.91,5.91,0,1,1,5.91-5.91h5.35a11.26,11.26,0,0,0-22.52,0" style="fill:#fff"/><path d="M42.81,264.53a11.26,11.26,0,0,0,11.26,11.26v-5.35A5.91,5.91,0,1,1,60,264.53h5.35a11.26,11.26,0,0,0-22.52,0" style="fill:#fff"/><path d="M587.24,18.72a7.84,7.84,0,1,0,7.84-7.84,7.84,7.84,0,0,0-7.84,7.84" style="fill:#fff"/><path d="M728.11,0H700.36a13.87,13.87,0,0,0,13.88,13.87A13.87,13.87,0,0,0,728.11,0" style="fill:#405f98"/><path d="M898.56,746a13.87,13.87,0,1,0-13.88-13.87A13.87,13.87,0,0,0,898.56,746" style="fill:#405f98"/><path d="M503.28,615.16a6.86,6.86,0,1,0-6.86-6.86,6.86,6.86,0,0,0,6.86,6.86" style="fill:#405f98"/><polyline points="453.66 732.84 453.66 719.12 467.39 719.12 453.66 732.84" style="fill:#fff"/><path d="M47.33,703.67a11.26,11.26,0,0,1-11.26-11.26h5.35a5.91,5.91,0,1,0,5.91-5.91v-5.35a11.26,11.26,0,1,1,0,22.51" style="fill:#405f98"/><path d="M228.39,726.51a11.26,11.26,0,0,1-11.26,11.26v-5.35a5.91,5.91,0,1,0-5.91-5.91h-5.35a11.26,11.26,0,0,1,22.52,0" style="fill:#fff"/><path d="M153.76,718.69a6.86,6.86,0,1,0-6.86-6.86,6.86,6.86,0,0,0,6.86,6.86" style="fill:#405f98"/><path d="M215,509a11.26,11.26,0,0,1,11.26,11.26H220.9A5.91,5.91,0,1,0,215,526.2v5.35A11.26,11.26,0,1,1,215,509" style="fill:#405f98"/><path d="M33.94,486.19A11.26,11.26,0,0,1,45.2,474.93v5.35a5.91,5.91,0,1,0,5.91,5.91h5.35a11.26,11.26,0,0,1-22.52,0" style="fill:#fff"/><path d="M108.56,494a6.86,6.86,0,1,0,6.86,6.86,6.86,6.86,0,0,0-6.86-6.86" style="fill:#405f98"/><path d="M96.89,335.52a11.26,11.26,0,0,1,11.26,11.26H102.8a5.91,5.91,0,1,0-5.91,5.91V358a11.26,11.26,0,1,1,0-22.51" style="fill:#405f98"/><path d="M869.52,410a11.26,11.26,0,0,1,11.26-11.26v5.35A5.91,5.91,0,1,0,886.7,410H892a11.26,11.26,0,0,1-22.52,0" style="fill:#fff"/><path d="M477.1,468.41a6.86,6.86,0,1,0,6.86,6.86,6.86,6.86,0,0,0-6.86-6.86" style="fill:#405f98"/><path d="M1197.12,693.06a11.26,11.26,0,0,0,14.19-7.23l-5.09-1.65a5.91,5.91,0,1,1-3.8-7.45l1.65-5.09a11.26,11.26,0,1,0-7,21.41" style="fill:#405f98"/><path d="M1215.56,672.78a5.91,5.91,0,1,1-7.45,3.79,5.92,5.92,0,0,1,7.45-3.79m-5.31,16.33a11.26,11.26,0,1,0-7.23-14.18,11.26,11.26,0,0,0,7.23,14.18" style="fill:#fff"/><path d="M346.93,535.91a11.26,11.26,0,0,0,14.19-7.23L356,527a5.91,5.91,0,1,1-3.8-7.45l1.65-5.09a11.26,11.26,0,1,0-7,21.41" style="fill:#405f98"/><path d="M365.37,515.62a5.91,5.91,0,1,1-7.45,3.79,5.92,5.92,0,0,1,7.45-3.79M360.06,532a11.26,11.26,0,1,0-7.23-14.18A11.26,11.26,0,0,0,360.06,532" style="fill:#fff"/><path d="M1113.46,620.9a6.69,6.69,0,1,0-6.86-6.68,6.78,6.78,0,0,0,6.86,6.68" style="fill:#fff"/><polyline points="978.74 660.54 978.74 646.82 992.46 646.82 978.74 660.54" style="fill:#fff"/><path d="M1100.12,729.93a11.26,11.26,0,0,0-11.26,11.26h5.35a5.91,5.91,0,1,1,5.91,5.91v5.35a11.26,11.26,0,1,0,0-22.51" style="fill:#fff"/><path d="M212.14,594.43A13.87,13.87,0,1,0,226,608.3a13.87,13.87,0,0,0-13.88-13.87" style="fill:#405f98"/><path d="M1346.18,598.2A7.84,7.84,0,1,0,1354,606a7.84,7.84,0,0,0-7.84-7.84" style="fill:#fff"/><polygon points="18.45 607.09 18.45 595.79 29.75 595.79 18.45 607.09" style="fill:#405f98"/><path d="M357.3,671.8A11.26,11.26,0,0,1,346,660.54h5.35a5.91,5.91,0,1,0,5.91-5.91v-5.35a11.26,11.26,0,1,1,0,22.51" style="fill:#405f98"/><path d="M488.06,348a11.26,11.26,0,0,1-11.26-11.26h5.35a5.91,5.91,0,1,0,5.91-5.91v-5.35a11.26,11.26,0,1,1,0,22.51" style="fill:#405f98"/><path d="M1366,738.84V711.1a13.87,13.87,0,1,0,0,27.74" style="fill:#405f98"/><path d="M1366,402.14V374.4a13.87,13.87,0,1,0,0,27.74" style="fill:#405f98"/><path d="M951.09,537.26A13.88,13.88,0,1,0,965,523.39a13.87,13.87,0,0,0-13.88,13.87" style="fill:#405f98"/><path d="M231.8,343.84A13.88,13.88,0,1,0,245.68,330a13.87,13.87,0,0,0-13.88,13.87" style="fill:#405f98"/><path d="M683.85,600.3a11.26,11.26,0,0,0,7.23,14.18l1.65-5.09a5.91,5.91,0,1,1,7.45-3.79l5.09,1.65a11.26,11.26,0,0,0-21.42-7" style="fill:#405f98"/><path d="M704.14,618.73a5.91,5.91,0,1,1-3.8-7.45,5.92,5.92,0,0,1,3.8,7.45m-16.34-5.3A11.26,11.26,0,1,0,702,606.19a11.26,11.26,0,0,0-14.19,7.23" style="fill:#fff"/><path d="M687.41,374.17a11.26,11.26,0,0,0,7.23,14.18l1.65-5.09a5.91,5.91,0,1,1,7.45-3.79l5.09,1.65a11.26,11.26,0,0,0-21.42-7" style="fill:#405f98"/><path d="M707.7,392.59a5.91,5.91,0,1,1-3.8-7.45,5.92,5.92,0,0,1,3.8,7.45m-16.34-5.3a11.26,11.26,0,1,0,14.19-7.23,11.26,11.26,0,0,0-14.19,7.23" style="fill:#fff"/><path d="M756,516.68a6.69,6.69,0,1,0,6.69-6.86,6.78,6.78,0,0,0-6.69,6.86" style="fill:#fff"/><path d="M1133.12,343.88a6.69,6.69,0,1,0,6.69-6.86,6.78,6.78,0,0,0-6.69,6.86" style="fill:#fff"/><polyline points="1204.44 519.98 1218.17 519.98 1218.17 533.7 1204.44 519.98" style="fill:#fff"/><path d="M647,503.35a11.26,11.26,0,0,0-11.26-11.26v5.35a5.91,5.91,0,1,1-5.91,5.91h-5.35a11.26,11.26,0,0,0,22.52,0" style="fill:#fff"/><path d="M350.63,421.34a11.26,11.26,0,0,0-11.26-11.26v5.35a5.91,5.91,0,1,1-5.91,5.91H328.1a11.26,11.26,0,0,0,22.52,0" style="fill:#fff"/><path d="M1323.19,503.47a11.26,11.26,0,0,0-11.26-11.26v5.35a5.91,5.91,0,1,1-5.91,5.91h-5.35a11.26,11.26,0,0,0,22.52,0" style="fill:#fff"/><path d="M880.67,304a11.26,11.26,0,0,0-11.26-11.26v5.35a5.91,5.91,0,1,1-5.91,5.91h-5.35a11.26,11.26,0,0,0,22.52,0" style="fill:#fff"/><path d="M778.76,749.28a7.84,7.84,0,1,0-7.84,7.84,7.84,7.84,0,0,0,7.84-7.84" style="fill:#fff"/><path d="M637.89,768h27.75a13.88,13.88,0,0,0-27.75,0" style="fill:#405f98"/><path d="M1055.48,438.11a5.91,5.91,0,1,1-7.45,3.79,5.92,5.92,0,0,1,7.45-3.79m-5.31,16.33a11.26,11.26,0,1,0-7.23-14.18,11.26,11.26,0,0,0,7.23,14.18" style="fill:#fff"/><rect width="1366" height="768" style="fill:#2e3180;opacity:0.8"/></svg>